<svg width="96" height="31" viewBox="0 0 96 31" fill="none" xmlns="http://www.w3.org/2000/svg">
<g clip-path="url(#clip0_1024_1255)">
<path fill-rule="evenodd" clip-rule="evenodd" d="M24.2224 13.8676C24.3109 16.1014 24.0078 17.4356 22.8165 18.9284C20.6371 21.6566 16.6781 22.7774 13.0895 21.8936C6.85281 20.3569 3.88195 12.5397 8.62255 8.31396C9.38124 7.63741 10.0859 7.1869 11.0314 6.69714C13.2861 5.53084 15.3295 5.83537 17.6908 5.86833C19.8784 5.89973 23.8636 6.1446 25.4219 5.57008C27.0655 4.96417 28.478 3.09149 28.9811 1.43857C29.5431 -0.413702 28.6943 0.0509359 26.8738 0.0540753L14.9051 0.0477964C11.1739 0.0917487 7.48041 1.31927 4.77665 3.68798C1.75007 6.34239 0.219578 9.79578 0 13.246V14.9806C0.209746 18.2911 1.6157 21.4714 4.05401 23.7993C6.05643 25.7096 8.80444 27.3877 11.8228 27.8162C15.6736 28.3625 19.9423 27.6263 22.8738 25.5762C23.3146 25.2685 23.685 24.9577 24.0881 24.6987C24.3322 25.7049 24.2519 26.9183 24.2519 28.1521C27.1868 28.1521 29.122 26.0456 29.3252 23.4367C29.5464 20.5829 29.3317 16.8203 29.3317 13.8676H24.2224Z" fill="#FFFFFF"/>
<path fill-rule="evenodd" clip-rule="evenodd" d="M41.5506 21.0886C38.4028 21.0886 38.2979 18.3886 39.9382 17.3463C41.3245 16.4657 44.1299 15.4737 45.8111 15.4376C45.8111 18.4279 45.2966 21.0886 41.5506 21.0886ZM34.5045 10.8854H38.1095C40.4364 10.8854 38.6814 9.31564 43.0254 9.31564C45.5375 9.31564 46.4502 11.0643 44.2872 12.094C42.211 13.083 33.3574 12.5775 33.3574 19.0479C33.3574 26.4963 43.4793 27.1367 48.2969 23.4698C51.8004 20.8029 51.0548 17.1862 51.0548 12.1411C51.0548 5.44941 47.6202 4.92041 40.7313 4.92041C38.7863 4.92041 36.9493 5.81986 35.9317 6.75856C34.7585 7.84167 33.3017 10.8854 34.5045 10.8854Z" fill="#FFFFFF"/>
<path fill-rule="evenodd" clip-rule="evenodd" d="M86.66 20.3034C85.3802 20.3034 84.3184 20.1888 84.0857 18.6489C84.0546 18.4417 84.0382 18.2094 84.0382 17.9488C84.0382 15.9302 89.9062 14.6744 90.9205 14.6524C90.9205 17.3727 90.3273 20.3034 86.66 20.3034ZM79.6138 10.1002H83.3827C84.8706 10.1002 85.4409 7.58708 89.1721 8.63408C90.9254 9.12697 91.6349 11.1378 87.458 11.8065C83.5859 12.4265 78.4668 13.1596 78.4668 18.4197C78.4668 19.2501 78.8453 20.6864 79.119 21.2484C82.1374 27.4692 96.0003 25.1648 96.0003 17.9488V10.2572C96.0003 4.27182 91.1499 4.13525 85.8407 4.13525C83.1222 4.13525 80.5446 5.75207 79.6778 7.80684C79.45 8.34525 78.706 10.1002 79.6138 10.1002Z" fill="#FFFFFF"/>
<path fill-rule="evenodd" clip-rule="evenodd" d="M54.8077 0.828165C54.2768 0.831304 54.0752 0.672762 54.0703 1.06205C56.099 6.76643 59.6073 13.9793 61.9751 19.646C62.4307 20.737 63.1582 21.6961 62.3684 22.9063C61.6425 24.0177 60.8101 24.0554 59.976 24.8559L59.9973 30.6231C62.6339 30.1506 64.5593 28.7379 65.7866 27.2827C67.209 25.5984 67.9447 23.6284 68.8837 21.3036C69.7865 19.0684 70.6255 17.0152 71.4465 14.8066C72.2314 12.6968 73.2736 10.4741 73.9979 8.42877C72.2478 8.10697 69.4572 8.78195 68.2692 9.56682C66.6977 10.6044 67.2893 13.1992 65.8784 14.0782C65.2442 13.7988 64.13 10.8948 63.7613 10.0864C62.8223 8.0175 61.2132 3.41664 59.5614 2.18127C58.4865 1.37757 56.5856 0.790492 54.8093 0.828165H54.8077Z" fill="#FFFFFF"/>
<path fill-rule="evenodd" clip-rule="evenodd" d="M69.6453 2.85303C69.4258 4.53577 69.0439 5.70365 70.1959 6.90291C72.9914 9.81632 76.5965 6.0741 73.2749 4.42275C72.4966 4.03503 70.3385 3.04924 69.6453 2.85303Z" fill="#FFFFFF"/>
<path fill-rule="evenodd" clip-rule="evenodd" d="M75.4875 0.109375C74.7141 0.329136 70.6846 1.04336 72.2774 2.86267C72.5969 3.22685 75.8513 4.15141 75.4875 0.109375Z" fill="#FFFFFF"/>
</g>
<defs>
<clipPath id="clip0_1024_1255">
<rect width="96" height="30.6232" fill="white"/>
</clipPath>
</defs>
</svg>
